<?xml version="1.0" encoding="UTF-8" standalone="no"?>
<svg id="Layer_1" xmlns:rdf="http://www.w3.org/1999/02/22-rdf-syntax-ns#" xmlns="http://www.w3.org/2000/svg" y="0px" xml:space="preserve" height="22.4" viewBox="0 0 32 22.4" width="32" version="1.1" enable-background="new 0 0 100 100" x="0px" xmlns:cc="http://creativecommons.org/ns#" xmlns:dc="http://purl.org/dc/elements/1.1/"><metadata id="metadata11"><rdf:RDF><cc:Work rdf:about=""><dc:format>image/svg+xml</dc:format><dc:type rdf:resource="http://purl.org/dc/dcmitype/StillImage"/><dc:title/></cc:Work></rdf:RDF></metadata><g id="circle" fill="#FFF" transform="matrix(0.32,0,0,0.32,-3.2e-4,-4.80016)"><path id="circle-top" d="m39.58,45.03c-2.205,0-4.382,0.171-6.525,0.51-0.374,1.425-0.574,2.92-0.574,4.462,0,9.677,7.844,17.52,17.52,17.52,7.868,0,14.52-5.188,16.74-12.33-3.31-2.88-7.02-5.2-11.07-6.91-5.1-2.16-10.52-3.25-16.1-3.25z"/><path id="circle-bottom" d="m33.99,42.88c1.843-0.234,3.708-0.352,5.591-0.352,5.921,0,11.67,1.16,17.07,3.447,3.878,1.641,7.461,3.807,10.7,6.462,0.11-0.797,0.17-1.61,0.17-2.438,0-9.676-7.845-17.52-17.52-17.52-7.141,0.002-13.28,4.274-16.01,10.4z"/></g><path id="rectangle" fill="#FFF" d="M0,0v22.4h32v-22.4h-32zm16.02,19.68-13.27-8.51,13.23-8.45,13.27,8.49-13.23,8.47z"/></svg>
