<?xml version="1.0" encoding="UTF-8" standalone="no"?>
<svg id="Your_Icon" xmlns:rdf="http://www.w3.org/1999/02/22-rdf-syntax-ns#" xmlns="http://www.w3.org/2000/svg" version="1.1" xml:space="preserve" height="22" viewBox="0 0 32 21.997673" width="32" enable-background="new 0 0 100 100" y="0px" x="0px" xmlns:cc="http://creativecommons.org/ns#" xmlns:dc="http://purl.org/dc/elements/1.1/"><metadata id="metadata39"><rdf:RDF><cc:Work rdf:about=""><dc:format>image/svg+xml</dc:format><dc:type rdf:resource="http://purl.org/dc/dcmitype/StillImage"/><dc:title/></cc:Work></rdf:RDF></metadata><g id="g7" fill="#ffffff" transform="matrix(0.32033315,0,0,0.43137255,-0.03331465,-8.6498837)"><polygon id="polygon9" points="41.69,71.05,41.69,55.65,11.44,71.05"/><polygon id="polygon11" points="0.104,65.34,22.37,53.91,0.104,53.91"/><polygon id="polygon13" points="7.492,71.05,40.98,53.91,33.11,53.91,0.664,71.05"/><polygon id="polygon15" points="88.67,20.05,58.41,20.05,58.41,35.45"/><polygon id="polygon17" points="100,37.19,100,25.76,77.74,37.19"/><polygon id="polygon19" points="67,37.19,99.44,20.05,92.61,20.05,59.12,37.19"/><polygon id="polygon21" points="41.69,35.45,41.69,20.05,11.44,20.05"/><polygon id="polygon23" points="22.37,37.19,0.104,25.76,0.104,37.19"/><polygon id="polygon25" points="26.08,37.19,34.15,37.19,0.104,20.05,0.104,23.97"/><polygon id="polygon27" points="88.67,71.05,58.41,55.65,58.41,71.05"/><polygon id="polygon29" points="100,65.34,100,53.91,77.74,53.91"/><polygon id="polygon31" points="100,67.13,74.02,53.91,65.96,53.91,100,71.05"/><polygon id="polygon33" points="55.12,40.07,55.12,20.05,44.9,20.05,44.9,40.07,0.104,40.07,0.104,50.47,44.9,50.47,44.9,71.05,55.12,71.05,55.12,50.47,100,50.47,100,40.07"/></g></svg>
